<svg version="1.1" viewBox="0 0 512 512" xmlns="http://www.w3.org/2000/svg">
 <path style="fill:#ffffff" d="m256.018 74.0447c-19.8596-5.08e-4 -39.7254 1.78569-57.6236 5.36016-78.7167 15.7206-135.262 62.0565-144.031 112.342-1.71182 9.30196-9.96282 30.4193-8.90104 34.5074l421.252 0.0166-9.07246-34.5259c-8.7781-50.3374-65.2122-96.5731-144.035-112.337-17.8762-3.5748-37.729-5.36334-57.5886-5.36385zm-210.556 152.21c-1.33827 0.89944-1.79712 1.56464-1.79901 4.45328v2e-3c-5.97e-4 0.8324-0.08546 1.20921-0.17697 1.4064 0.171127 0.0714 0.397842 0.20865 0.844207 0.71702 0.320104 0.36458 0.745464 0.74998 1.15019 1.13176 0.542395 0.0118 0.889635 0.0233 1.60363 0.035 2.92323 0.0479 7.23357 0.0939 12.7442 0.1364 11.0213 0.0849 26.866 0.15676 46.3392 0.21197 38.9465 0.11073 92.4148 0.15443 150.99 0.10507l209.131-0.17511 0.72993-0.72993c0.57269-0.57269 0.77571-0.80892 0.90872-0.95848 0.0437-0.30836 0.12138-0.90183 0.18801-1.9391 0.22813-3.55143 0.1856-3.49996-1.40086-4.37955-0.23236-0.0336-0.47832-0.0898-1.77321-0.17696-3.42433-0.23036-10.5187-0.41846-24.0341-0.53638zm-1.93358 7.5481c-0.217542-8e-3 -0.141297 0.1003-0.206444 0.10691 0.113129 6e-3 0.224556 0.0118 0.479244 0.0203 0.02513 9.4e-4 0.09175 9.4e-4 0.117968 2e-3 -0.06422-0.0119-0.350046-0.12713-0.390768-0.12902zm387.578 30.1518-9.90193 9.84294c-15.1698 15.0786-26.4746 23.8392-39.6188 30.2864-15.3204 7.51468-28.3344 9.73435-41.6334 6.29285-10.779-2.78939-19.1195-8.796-33.0697-22.8673-7.42391-7.48839-11.9033-11.4586-14.1967-12.8769-2.2934-1.41837-1.9261-1.25543-5.23482-0.98983-3.85943 0.30979-6.88598 1.49058-10.6282 4.47725-4.11779 3.28643-7.86924 4.06883-12.2539 4.49015-4.61119 0.44307-9.94872-0.645-14.4529-3.16854s-8.58899-6.06699-13.8686-11.1111l-4.55651-4.35375-87.1487 0.24331-89.1284 0.24884-3.77128 1.52252c-7.3178 2.95363-15.9856 13.6021-17.4924 21.8277-0.50069 2.73327-0.92528 9.79514-0.853423 16.2869 0.07186 6.49179 0.825071 13.429 1.08936 14.4437 2.89946 11.1318 9.5931 18.2703 19.7117 21.5218 0.828735 0.2663 13.7181 1.21847 201.5 1.26631 90.2009 0.0229 140.128 9.5e-4 168.001-0.19907 27.8734-0.20024 34.6417-1.17729 33.6356-0.87923 10.6842-3.16526 18.555-11.9017 20.7052-23.2397 0.58781-3.09953 0.58781-25.5482 0-28.6478-1.74307-9.1912-8.33819-17.832-16.4842-21.7927-3.02291-1.46981-3.04872-1.56344-4.75558-1.81928s-5.64487-0.4109-13.5516-0.56772zm27.4036 105.637-101.729 0.37049c-94.1813 0.34372-113.692 0.70132-123.861 1.85615-55.5478 6.30864-87.9282 18.6568-104.149 36.2475l-15.4151 16.7164-9.97565-20.9909c-5.22729-11-10.5112-18.5965-19.7098-28.2386l-5.58135-5.85045h-24.6903c1.36899 21.9432 10.165 38.5718 23.8203 47.8304 19.6632 13.332 45.3964 18.8426 102.527 19.9808 23.4384 0.46693 66.7168 0.56742 106.042 0.39445 39.3252-0.17297 75.908-0.72104 82.2807-1.2018 27.7045-2.08998 47.6299-7.10514 61.2124-14.8934 13.5825-7.78828 21.3762-17.9347 26.0986-33.2983 1.48757-4.83965 2.66212-12.7394 3.12983-18.9228z"/>
</svg>
