<svg width="2500" height="2500" version="1.1" viewBox="7.025 7.025 497.951 497.95" xmlns="http://www.w3.org/2000/svg">
 <path d="m172.29 351.05h-44.216v-142.85h44.216zm-22.319-161.56c-14.44 0-26.147-11.802-26.147-26.358 0-14.558 11.708-26.359 26.147-26.359 14.439 0 26.145 11.801 26.145 26.359 8.1e-4 14.557-11.706 26.358-26.145 26.358zm188.02 161.56h-44.001v-74.983c0-20.566-7.8118-32.046-24.074-32.046-17.698 0-26.944 11.956-26.944 32.046v74.983h-42.408v-142.85h42.408v19.239s12.756-23.597 43.046-23.597c30.291 0 51.974 18.495 51.974 56.756z" style="fill:#fff;stroke-width:.80885"/>
</svg>
