<?xml version="1.0" encoding="UTF-8" standalone="no"?>
<!-- Created with Inkscape (http://www.inkscape.org/) -->

<svg
   xmlns:dc="http://purl.org/dc/elements/1.1/"
   xmlns:cc="http://creativecommons.org/ns#"
   xmlns:rdf="http://www.w3.org/1999/02/22-rdf-syntax-ns#"
   xmlns:svg="http://www.w3.org/2000/svg"
   xmlns="http://www.w3.org/2000/svg"
   xmlns:sodipodi="http://sodipodi.sourceforge.net/DTD/sodipodi-0.dtd"
   xmlns:inkscape="http://www.inkscape.org/namespaces/inkscape"
   width="450"
   height="600"
   id="svg2"
   version="1.1"
   inkscape:version="0.48.4 r9939"
   sodipodi:docname="future_photo.svg"
   inkscape:export-filename="/home/dnyeupe/Dropbox/CV/webCV/web/future_photo.png"
   inkscape:export-xdpi="90"
   inkscape:export-ydpi="90">
  <defs
     id="defs4">
    <linearGradient
       id="linearGradient3795">
      <stop
         style="stop-color:#000000;stop-opacity:1;"
         offset="0"
         id="stop3797" />
      <stop
         id="stop5071"
         offset="0.25"
         style="stop-color:#000000;stop-opacity:1;" />
      <stop
         style="stop-color:#000000;stop-opacity:1;"
         offset="1"
         id="stop3799" />
    </linearGradient>
    <inkscape:perspective
       sodipodi:type="inkscape:persp3d"
       inkscape:vp_x="0 : 300 : 1"
       inkscape:vp_y="0 : 1000 : 0"
       inkscape:vp_z="450 : 300 : 1"
       inkscape:persp3d-origin="225 : 200 : 1"
       id="perspective3015" />
    <clipPath
       clipPathUnits="userSpaceOnUse"
       id="clipPath2990">
      <rect
         rx="29.433208"
         ry="29.433208"
         y="659.1972"
         x="3.4484568e-14"
         height="203.43309"
         width="429.94058"
         id="rect2992"
         style="fill:#273440;fill-opacity:0.6256158;stroke:none" />
    </clipPath>
    <filter
       id="filter5135"
       inkscape:label="Glow"
       inkscape:menu="Shadows and Glows"
       inkscape:menu-tooltip="Glow of object's own color at the edges"
       color-interpolation-filters="sRGB">
      <feGaussianBlur
         id="feGaussianBlur5137"
         stdDeviation="5"
         result="result91" />
      <feComposite
         in2="result91"
         id="feComposite5139"
         in="SourceGraphic"
         operator="over" />
    </filter>
  </defs>
  <sodipodi:namedview
     id="base"
     pagecolor="#ffffff"
     bordercolor="#666666"
     borderopacity="1.0"
     inkscape:pageopacity="0.0"
     inkscape:pageshadow="2"
     inkscape:zoom="1.0575175"
     inkscape:cx="233.71849"
     inkscape:cy="289.38379"
     inkscape:document-units="px"
     inkscape:current-layer="g3000"
     showgrid="false"
     inkscape:window-width="1535"
     inkscape:window-height="876"
     inkscape:window-x="65"
     inkscape:window-y="24"
     inkscape:window-maximized="1"
     showguides="false"
     inkscape:guide-bbox="true">
    <sodipodi:guide
       orientation="1,0"
       position="0,0"
       id="guide3045" />
    <sodipodi:guide
       orientation="0,1"
       position="0,0"
       id="guide3047" />
    <sodipodi:guide
       orientation="0,1"
       position="450,600"
       id="guide3049" />
    <sodipodi:guide
       orientation="1,0"
       position="450,600"
       id="guide3051" />
  </sodipodi:namedview>
  <metadata
     id="metadata7">
    <rdf:RDF>
      <cc:Work
         rdf:about="">
        <dc:format>image/svg+xml</dc:format>
        <dc:type
           rdf:resource="http://purl.org/dc/dcmitype/StillImage" />
        <dc:title />
      </cc:Work>
    </rdf:RDF>
  </metadata>
  <g
     inkscape:label="Capa 1"
     inkscape:groupmode="layer"
     id="layer1"
     transform="translate(0,-452.36218)"
     style="display:none">
    <rect
       style="fill:#273440;fill-opacity:0.6256158;stroke:none"
       id="rect3031"
       width="327.44559"
       height="154.93599"
       x="61.960155"
       y="690.86163"
       ry="22.416525"
       rx="22.416525" />
  </g>
  <g
     style="display:inline"
     transform="translate(0,-452.36218)"
     id="g3000"
     inkscape:groupmode="layer"
     inkscape:label="Capa 1 copia#1">
    <path
       style="fill:#cccccc;fill-opacity:0.58403362;display:inline"
       d="m 328.45609,959.27124 c -0.26279,-0.35987 -1.15398,-2.56964 -1.98052,-4.91017 -1.53372,-4.34295 -1.67969,-5.84606 -3.27432,-33.71657 -0.83117,-14.52741 -1.87712,-32.16633 -2.62051,-44.19191 -0.34503,-5.58132 -0.91167,-15.30351 -1.25917,-21.60506 -0.34747,-6.30124 -0.67967,-12.04612 -0.73816,-12.7665 -0.22495,-2.77126 1.22965,-8.43638 2.3828,-9.27955 0.7536,-0.55107 3.11667,-0.86792 6.47322,-0.86792 5.92924,0 6.81559,-0.35173 14.02603,-5.56486 4.26653,-3.08461 4.68293,-3.62075 7.22236,-9.29434 1.48218,-3.31131 2.86947,-6.89355 3.08286,-7.96067 0.2168,-1.08449 -0.21826,-4.49185 -0.98672,-7.72781 -3.14813,-13.25414 -8.02486,-33.46587 -8.66289,-35.90366 -1.81051,-6.91652 -1.80674,-6.89838 -3.20001,-15.38538 -0.6651,-4.05101 -1.61628,-8.9855 -3.97523,-20.62266 -0.36494,-1.80047 -0.91122,-4.89371 -1.21393,-6.87406 -0.50099,-3.27809 -0.90184,-5.39571 -2.72666,-14.40327 -0.32823,-1.62046 -0.88895,-4.71416 -1.24605,-6.87452 -0.35711,-2.16038 -0.91784,-5.25361 -1.24609,-6.87408 -0.32825,-1.62031 -0.94599,-4.71369 -1.3727,-6.87436 -0.42674,-2.16067 -1.04443,-5.2539 -1.37268,-6.87408 -0.32825,-1.62045 -0.88737,-4.71384 -1.24251,-6.87452 -1.51931,-9.24299 -2.01612,-11.16928 -3.94108,-15.28312 -1.11625,-2.38539 -2.52831,-4.89039 -3.13789,-5.56608 -1.24674,-1.3826 -10.89749,-6.35801 -14.77377,-7.61618 -1.39464,-0.45277 -4.08349,-1.63723 -5.97528,-2.63246 -1.89175,-0.99524 -4.51735,-2.16505 -5.83466,-2.59985 -1.31731,-0.43449 -4.58394,-1.91616 -7.25915,-3.29243 -2.67528,-1.37611 -5.94193,-2.85763 -7.25921,-3.29258 -1.3173,-0.4345 -3.94288,-1.60446 -5.83466,-2.59969 -1.89177,-0.99509 -4.43336,-2.14315 -5.64795,-2.55182 -2.53872,-0.85433 -9.59267,-7.3371 -11.04672,-10.15306 -0.5401,-1.04598 -1.99364,-2.66599 -3.2301,-3.60037 -5.94618,-4.4929 -5.93555,-4.4713 -5.93555,-12.07027 0,-4.12941 0.41376,-8.48699 1.03663,-10.91815 0.57012,-2.22561 0.85849,-4.75598 0.64081,-5.62376 -0.22407,-0.89192 0.0366,-2.41347 0.60009,-3.50295 0.5478,-1.05942 0.99593,-2.83135 0.99593,-3.93851 0,-1.59432 0.37429,-2.15447 1.8004,-2.69331 5.82369,-2.2007 10.63875,-7.21916 10.63875,-11.0885 0,-0.75828 0.31673,-1.97038 0.70388,-2.69377 0.90974,-1.6996 0.89584,-18.43784 -0.0183,-20.14287 -1.20316,-2.24842 -0.80627,-4.95851 0.94956,-6.48519 1.91625,-1.66607 1.97771,-2.27046 0.61988,-6.09571 -1.97673,-5.56938 -3.56598,-12.37035 -3.56598,-15.26046 0,-1.60899 -0.43492,-4.59546 -0.96644,-6.63637 -0.83123,-3.19124 -1.70166,-4.47658 -6.2196,-9.18244 -2.88921,-3.00956 -5.25311,-5.79396 -5.25311,-6.18782 0,-0.39341 -0.88381,-1.99983 -1.96404,-3.57015 -1.08025,-1.56988 -1.96411,-3.11831 -1.96411,-3.44074 0,-1.66125 -3.36615,-3.58722 -7.02235,-4.01793 -2.36942,-0.27956 -4.65974,-1.02908 -5.94807,-1.94624 -2.90057,-2.06552 -4.37891,-1.6496 -4.37891,1.23204 0,2.12503 -0.13366,2.27244 -1.9641,2.1572 -1.08023,-0.068 -4.09348,-0.78032 -6.69605,-1.58362 -4.72525,-1.45842 -4.73871,-1.45886 -9.49306,-0.24737 -2.61855,0.66767 -6.67438,1.38065 -9.01288,1.58392 -4.09503,0.35581 -4.26404,0.44098 -4.58525,2.31034 -0.29535,1.71908 -0.85834,2.135 -4.91622,3.63283 -2.52047,0.93015 -5.17088,2.17396 -5.88974,2.7631 -0.71897,0.58898 -2.63286,2.05783 -4.25321,3.26312 -3.02899,2.25372 -6.09722,7.557 -10.74638,18.57632 -1.04947,2.48718 -2.334,5.47757 -2.85454,6.64481 -1.05392,2.36336 -0.70946,4.09694 0.81386,4.09694 0.55145,0 1.0343,0.074 1.07303,0.16415 0.0385,0.0906 0.17783,4.28828 0.30891,9.32939 0.13108,5.04127 0.58498,10.51807 1.00868,12.17147 0.92075,3.59296 0.48294,5.7195 -1.71514,8.33173 -1.34909,1.60311 -1.63695,2.63776 -1.63695,5.88337 0,3.5472 0.27587,4.34777 2.78246,8.07394 3.32433,4.94174 7.80312,8.57729 10.2497,8.32071 2.139,-0.22412 3.01877,0.31956 4.15526,2.56933 0.49674,0.983 1.22516,2.37634 1.61879,3.09686 0.39367,0.72007 1.15,3.37126 1.68074,5.89182 1.15593,5.4901 0.61151,17.00614 -0.97714,20.66977 -1.65846,3.82465 -8.08741,10.43744 -14.25218,14.65972 -3.17385,2.17366 -7.64385,5.2761 -9.93333,6.89385 -4.05921,2.86836 -9.86594,6.0652 -31.98707,17.60902 -11.56554,6.03559 -17.5368,9.80978 -22.2875,14.08808 -1.63568,1.47367 -3.79414,3.26811 -4.79653,3.98805 -1.51797,1.09067 -1.92315,2.02067 -2.42446,5.56515 -0.33109,2.34023 -0.89896,5.72827 -1.26206,7.5289 -0.36309,1.80034 -0.9523,5.04112 -1.30936,7.20149 -0.35707,2.16023 -0.99115,5.40115 -1.40898,7.20148 -0.48881,2.1066 -0.94398,16.11058 -1.27669,39.28173 -0.28432,19.80444 -0.81721,39.69055 -1.18402,44.19162 -2.34007,28.71532 -2.5904,35.48623 -1.54941,41.90029 0.7466,4.60029 2.60432,9.82036 3.49464,9.82036 0.30367,0 1.42977,1.27568 2.50236,2.83469 3.57683,5.19847 11.492,12.27326 15.60711,13.94976 3.37771,1.37565 4.81334,1.54147 13.39718,1.54403 5.28776,0 10.39796,-0.29509 11.35597,-0.65935 2.25294,-0.8563 6.29131,0.30612 8.22936,2.36893 1.53918,1.63828 2.90174,5.97865 3.98571,12.69656 0.80984,5.01922 0.80394,5.78793 -0.12295,16.04006 -0.6765,7.4836 -0.93324,10.11137 -2.62333,26.84235 -0.40011,3.96086 -0.98748,10.14777 -1.3052,13.7486 -0.3177,3.60081 -0.90509,9.78757 -1.30518,13.74888 -0.4001,3.96041 -0.99121,9.85267 -1.31358,13.09345 -0.32237,3.24095 -0.91433,9.13276 -1.3155,13.09407 z"
       id="path3437"
       inkscape:connector-curvature="0"
       sodipodi:nodetypes="cssssccscscccscccssccccccscssccccscccscsccccsscscsccscscccscccssccscsccccscccsccccscssssscccssscssscc" />
  </g>
  <g
     transform="translate(0,-452.36218)"
     id="g2994"
     inkscape:groupmode="layer"
     inkscape:label="Capa 1 copia"
     style="display:inline" />
</svg>
