<svg version="1.1" viewBox="0 0 4000 4000" xmlns="http://www.w3.org/2000/svg">
 <rect width="4e3" height="4e3" style="fill:#fff"/>
 <path d="m261.333 3508v-229.333h458.667v458.667h-458.667zm393.333 0v-164h-326.667v328h326.667zm-262.667 0v-98.6667h197.333v197.333h-197.333zm394.667 65.3333v-164h65.3333v-65.3333h-65.3333v-130.667h-130.667v-65.3333h65.3333v-66.6667h-262.667v66.6667h65.3333v65.3333h-65.3333v-65.3333h-130.667v-66.6667h-65.3333v-130.667h65.3333v-130.667h-65.3333v-65.3333h65.3333v-66.6667h-65.3333v-393.333h130.667v-130.667h65.3333v130.667h-65.3333v65.3333h130.667v-65.3333h66.6667v65.3333h130.667v66.6667h-393.333v261.333h65.3333v66.6667h65.3333v-66.6667h65.3333v-196h66.6667v65.3333h65.3333v-65.3333h130.667v-197.333h65.3333v-65.3334h66.6667v-65.3333h-262.667v65.3333h65.3333v65.3334h-65.3333v-65.3334h-65.3333v-65.3333h-66.6667v-130.667h-65.3333v65.3334h-196v-65.3334h130.667v-66.6666h65.3333v-65.3334h65.3333v-65.3333h-65.3333v-65.3333h-65.3333v65.3333h-65.3333v-65.3333h65.3333v-130.667h-65.3333v-66.6667h-65.3333v-130.667h65.3333v-65.3334h-65.3333v-132h65.3333v-65.3333h-65.3333v-196h65.3333v-65.3333h65.3333v-66.6667h-130.667v-65.3333h328v65.3333h-66.6667v66.6667h66.6667v65.3333h-66.6667v65.3333h-65.3333v-65.3333h-130.667v130.667h196v65.3333h-65.3333v65.3333h-130.667v132h65.3333v-65.3333h328v-66.6667h-130.667v-130.667h65.3333v-65.3334h65.3333v65.3334h65.3333v-65.3334h65.3333v65.3334h-65.3333v65.3333h65.3333v65.3333h66.6667v66.6667h-66.6667v65.3333h-65.3333v65.3334h132v-65.3334h65.3333v-65.3333h65.3333v-66.6667h-65.3333v-65.3333h-65.3333v-196h-66.6667v-65.3333h66.6667v-66.6667h-262.667v-65.3333h196v-65.3333h-65.3333v-130.667h65.3333v-66.6667h-65.3333v-65.3333h65.3333v65.3333h66.6667v-65.3333h65.3333v-65.3333h-65.3333v-65.3333h-66.6667v65.3333h-65.3333v-65.3333h65.3333v-65.3333h66.6667v65.3333h65.3333v-65.3333h196v65.3333h65.3333v-65.3333h66.6667v65.3333h-66.6667v65.3333h66.6667v65.3333h196v-65.3333h65.3333v-65.3333h-130.667v65.3333h-65.3334v-65.3333h65.3334v-65.3333h262.667v65.3333h-65.3333v65.3333h65.3333v130.667h524v66.6667h-65.3333v196h65.3333v-130.667h65.3334v-65.3333h65.3333v-66.6667h-65.3333v-65.3333h65.3333v-65.3333h66.6667v-65.3333h-66.6667v-65.3333h66.6667v65.3333h65.3333v65.3333h65.3333v65.3333h-65.3333v132h65.3333v-66.6667h130.667v-261.333h66.6667v65.3333h196v65.3333h65.3333v-130.667h65.3333v65.3333h66.6667v130.667h65.3333v65.3333h-65.3333v-65.3333h-66.6667v262.667h-65.3333v-262.667h-130.667v132h65.3334v196h-130.667v-65.3333h-65.3333v65.3333h-66.6667v65.3333h66.6667v66.6667h65.3333v65.3333h65.3333v-132h196v-65.3333h66.6667v-130.667h65.3333v130.667h65.3334v65.3333h65.3333v-65.3333h65.3333v65.3333h-65.3333v66.6667h132v65.3333h65.3333v-132h-65.3333v-65.3333h65.3333v65.3333h65.3334v-65.3333h65.3333v65.3333h65.3333v132h-65.3333v-65.3333h-65.3333v65.3333h-65.3334v65.3333h-65.3333v65.3334h-197.333v65.3333h65.3333v132h132v-66.6667h-66.6667v-65.3333h132v-65.3333h130.667v-65.3334h65.3333v65.3334h-65.3333v197.333h65.3333v65.3333h-65.3333v130.667h-65.3333v-130.667h-65.3334v196h-65.3333v66.6667h-66.6667v130.667h-130.667v65.3333h197.333v-130.667h65.3333v-65.3333h130.667v196h-130.667v65.3333h130.667v65.3334h65.3333v66.6666h-65.3333v-66.6666h-130.667v132h-65.3333v65.3333h261.333v65.3333h-196v65.3334h-65.3333v65.3333h261.333v66.6667h-261.333v65.3333h65.3333v130.667h-65.3333v65.3333h65.3333v132h-132v-132h-65.3333v197.333h132v130.667h65.3333v-65.3333h65.3334v-130.667h65.3333v65.3333h65.3333v65.3334h-130.667v65.3333h130.667v65.3333h-130.667v-65.3333h-65.3334v132h-65.3333v196h65.3333v65.3333h-65.3333v66.6667h130.667v-197.333h65.3333v-65.3334h65.3333v262.667h-65.3333v130.667h65.3333v65.3333h-65.3333v65.3333h-262.667v-65.3333h197.333v-130.667h-197.333v-65.3333h-130.667v65.3333h65.3333v130.667h-65.3333v65.3333h-65.3334v-65.3333h65.3334v-65.3333h-130.667v65.3333h-66.6667v65.3333h-65.3333v-65.3333h-65.3333v65.3333h-130.667v-65.3333h-65.3333v65.3333h-132v-65.3333h65.3333v-65.3333h-130.667v65.3333h-65.3333v-65.3333h65.3333v-65.3334h130.667v-65.3333h-130.667v-66.6667h197.333v132h65.3333v-65.3333h65.3333v65.3333h65.3334v-132h-130.667v-65.3333h-65.3333v-65.3333h-66.6667v-130.667h-65.3333v-66.6667h132v-65.3333h-197.333v132h-65.3333v-66.6667h-197.333v-65.3333h-65.3334v132h-65.3333v65.3333h65.3333v65.3334h65.3334v-130.667h65.3333v130.667h-65.3333v130.667h65.3333v-65.3333h66.6667v-65.3333h65.3333v-65.3334h65.3333v65.3334h65.3334v65.3333h-130.667v132h-65.3333v-66.6667h-66.6667v66.6667h-65.3333v65.3333h65.3333v65.3334h66.6667v130.667h-66.6667v-130.667h-65.3333v-65.3334h-130.667v65.3334h65.3333v65.3333h65.3334v65.3333h-130.667v-65.3333h-65.3333v65.3333h-328v-65.3333h65.3333v-65.3333h-328v65.3333h132v65.3333h-262.667v-65.3333h65.3334v-65.3333h-65.3334v-65.3334h65.3334v-65.3333h-65.3334v-66.6667h65.3334v66.6667h130.667v65.3333h197.333v-65.3333h-65.3334v-66.6667h65.3334v-65.3333h-65.3334v-65.3333h-65.3333v-65.3334h-66.6667v65.3334h-130.667v65.3333h-65.3334v-196h-65.3333v65.3333h-66.6667v130.667h-65.3333v65.3333h65.3333v66.6667h66.6667v65.3333h-66.6667v65.3334h66.6667v130.667h-66.6667v-65.3333h-130.667v65.3333h-196v-65.3333h-66.6667v65.3333h-65.3333zm197.333 66v-32.6666h65.3333v65.3333h65.3334v-65.3333h-65.3334v-65.3334h130.667v-132h-65.3333v66.6667h-65.3334v-66.6667h-65.3333v-65.3333h-65.3333v-130.667h65.3333v65.3334h65.3333v65.3333h130.667v-65.3333h-65.3333v-130.667h-65.3334v65.3333h-65.3333v-197.333h-65.3333v-65.3333h65.3333v-65.3334h65.3333v65.3334h65.3334v130.667h65.3333v132h65.3333v-65.3333h66.6667v-66.6667h-66.6667v-65.3333h66.6667v-65.3333h130.667v-65.3334h-130.667v-65.3333h130.667v-197.333h-65.3334v-130.667h65.3334v65.3333h130.667v-65.3333h-130.667v-65.3333h197.333v261.333h-66.6667v-65.3333h-65.3333v65.3333h65.3333v197.333h-65.3333v130.667h-130.667v132h130.667v65.3333h65.3333v-65.3333h66.6667v65.3333h130.667v130.667h65.3333v-130.667h-65.3333v-65.3333h-130.667v-66.6667h65.3333v-65.3333h65.3334v65.3333h65.3333v66.6667h328v-66.6667h-262.667v-130.667h132v65.3333h65.3334v-65.3333h65.3333v-65.3334h130.667v-65.3333h65.3333v-262.667h66.6667v65.3334h65.3333v65.3333h-65.3333v66.6667h130.667v-66.6667h65.3334v-65.3333h65.3333v65.3333h132v-65.3333h-132v-65.3334h132v-65.3333h65.3333v130.667h65.3334v65.3333h65.3333v66.6667h-65.3333v130.667h-130.667v-65.3333h65.3333v-65.3333h-65.3333v65.3333h-65.3333v-65.3333h-132v65.3333h-196v65.3333h-66.6667v65.3334h66.6667v-65.3334h65.3333v130.667h65.3333v-130.667h130.667v65.3334h66.6667v65.3333h65.3333v-65.3333h261.333v65.3333h-196v132h-130.667v65.3333h65.3333v130.667h130.667v65.3333h65.3333v-65.3333h132v-196h65.3333v-66.6667h65.3334v66.6667h197.333v-132h-66.6667v65.3333h-65.3333v-65.3333h-65.3333v-65.3333h-65.3334v-65.3334h-65.3333v65.3334h-66.6667v-65.3334h-65.3333v-130.667h65.3333v65.3333h66.6667v-132h196v-261.333h65.3333v-66.6667h-65.3333v-65.3333h-65.3333v197.333h-65.3334v-65.3333h-65.3333v-262.667h-66.6667v65.3333h-65.3333v-130.667h132v-328h65.3333v-130.667h65.3334v65.3333h65.3333v-65.3333h-65.3333v-66.6667h-130.667v-130.667h130.667v65.3333h130.667v-130.667h-130.667v-65.3333h-130.667v-66.6667h130.667v-65.3333h-130.667v65.3333h-66.6667v132h66.6667v65.3334h-262.667v-65.3334h130.667v-65.3333h-261.333v-66.6667h130.667v-65.3333h-65.3333v-65.3333h130.667v-130.667h-65.3334v65.3333h-197.333v-65.3333h66.6667v-65.3333h-66.6667v-66.6667h-65.3333v-65.3333h65.3333v-65.3333h66.6667v-65.3333h65.3333v65.3333h65.3333v-130.667h-130.667v-66.6667h65.3333v-65.3333h-65.3333v65.3333h-66.6667v66.6667h-65.3333v65.3333h-65.3334v65.3333h-65.3333v-65.3333h-65.3333v130.667h-66.6667v-130.667h-65.3333v130.667h65.3333v65.3333h-65.3333v66.6667h-65.3334v-66.6667h-130.667v66.6667h-65.3334v-66.6667h-132v197.333h132v65.3334h65.3334v65.3333h-262.667v-65.3333h-65.3333v-65.3334h-65.3334v-65.3333h-65.3333v-65.3333h130.667v65.3333h65.3333v-132h-65.3333v-65.3333h65.3333v-196h-65.3333v130.667h-65.3334v-65.3333h-65.3333v-65.3333h65.3333v-66.6667h-132v-65.3333h-65.3333v65.3333h-196v-65.3333h-66.6667v-65.3333h-65.3333v-65.3333h-65.3333v65.3333h-65.3334v130.667h-130.667v66.6667h65.3333v130.667h-65.3333v-65.3333h-66.6667v65.3333h66.6667v65.3333h261.333v-130.667h-65.3333v-65.3333h-65.3334v-66.6667h65.3334v-65.3333h130.667v65.3333h-65.3333v66.6667h197.333v130.667h65.3334v-130.667h65.3333v-66.6667h65.3333v132h-65.3333v130.667h65.3333v65.3333h-65.3333v66.6667h65.3333v65.3333h-130.667v65.3333h65.3333v65.3334h-196v65.3333h130.667v65.3333h-65.3334v66.6667h-132v-262.667h66.6667v-65.3333h-66.6667v-65.3333h66.6667v-66.6667h130.667v-65.3333h-130.667v65.3333h-328v66.6667h196v65.3333h-196v65.3333h65.3333v65.3334h65.3334v65.3333h-65.3334v65.3333h130.667v66.6667h-65.3333v65.3333h-65.3334v130.667h-65.3333v-65.3333h-65.3333v65.3333h65.3333v65.3333h-65.3333v66.6667h-132v196h65.3333v-130.667h66.6667v-65.3333h65.3333v130.667h65.3333v-65.3334h65.3334v-65.3333h65.3333v65.3333h65.3333v-197.333h66.6667v65.3333h130.667v-65.3333h-65.3334v-65.3333h65.3334v-65.3334h197.333v-65.3333h130.667v-132h65.3333v65.3333h65.3333v66.6667h-65.3333v130.667h-65.3333v130.667h-65.3334v-65.3333h-65.3333v65.3333h-132v66.6667h-196v261.333h-197.333v65.3334h-65.3334v-130.667h-65.3333v130.667h65.3333v66.6666h-130.667v-66.6666h-66.6667v132h66.6667v65.3333h65.3333v65.3333h-65.3333v65.3334h-66.6667v65.3333h66.6667v66.6667h-66.6667v65.3333h66.6667v196h-66.6667v-65.3333h-130.667v-65.3334h-65.3333v65.3334h-65.3333v262.667h-132v65.3334h-130.667v65.3333h65.3333v65.3333h65.3333v-130.667h65.3333v65.3333h197.333v65.3333h65.3333v66.6667h65.3333v196h66.6667v65.3333h-66.6667v66.6667h132v130.667h-65.3333v65.3333h65.3333zm2032-393.333v-32.6667h-130.667v-65.3333h65.3334v-66.6667h65.3333v66.6667h65.3333v130.667h-65.3333zm-2164-197.333v-32.6667h-65.3333v-65.3333h-130.667v-65.3334h65.3333v-65.3333h-65.3333v-65.3333h65.3333v-66.6667h-65.3333v-65.3333h65.3333v65.3333h130.667v66.6667h132v65.3333h-132v65.3333h66.6667v65.3334h-66.6667v65.3333h66.6667v65.3333h-66.6667zm0-130.667v-32.6667h-65.3333v65.3334h65.3333zm0-130.667v-32.6666h-130.667v65.3333h130.667zm918.667 196v-32.6666h-130.667v-65.3334h65.3333v-130.667h-65.3333v-66.6667h130.667v-65.3333h65.3333v-130.667h-130.667v-65.3333h-65.3333v-132h130.667v-130.667h65.3333v-130.667h-65.3333v65.3334h-65.3334v-65.3334h-65.3333v-66.6666h130.667v-65.3334h-65.3334v-65.3333h65.3334v-65.3333h-130.667v-65.3334h65.3333v-65.3333h-65.3333v-66.6667h65.3333v66.6667h65.3334v-66.6667h262.667v66.6667h65.3334v-66.6667h65.3333v-65.3333h-65.3333v-65.3333h-65.3334v65.3333h-66.6666v-196h132v65.3333h130.667v-132h65.3334v-196h65.3333v65.3334h132v65.3333h130.667v-65.3333h-65.3334v-65.3334h-65.3333v-65.3333h-197.333v-65.3333h328v65.3333h-65.3334v65.3333h65.3334v65.3334h132v65.3333h-132v65.3333h65.3333v66.6667h66.6667v130.667h65.3333v65.3333h65.3333v65.3333h-197.333v132h-65.3333v-197.333h-65.3334v65.3333h-65.3333v-130.667h196v-65.3334h-130.667v-65.3333h65.3334v-66.6667h-130.667v66.6667h-132v130.667h-65.3333v197.333h65.3333v-66.6667h66.6667v66.6667h130.667v65.3333h-65.3333v65.3334h-65.3333v65.3333h196v-65.3333h65.3333v65.3333h66.6667v65.3333h-328v65.3334h130.667v66.6666h-130.667v-66.6666h-66.6667v-65.3334h-65.3333v65.3334h-130.667v66.6666h65.3333v65.3334h130.667v65.3333h66.6667v65.3333h65.3333v-65.3333h65.3333v65.3333h65.3334v-130.667h65.3333v-132h132v-65.3334h65.3333v132h65.3334v-262.667h-65.3334v65.3333h-65.3333v-65.3333h-65.3333v-65.3334h65.3333v-65.3333h130.667v130.667h65.3333v-65.3334h65.3333v-65.3333h-65.3333v-66.6667h-65.3333v-65.3333h65.3333v65.3333h65.3333v66.6667h66.6667v130.667h-132v130.667h65.3333v65.3334h-65.3333v132h-65.3333v65.3333h-65.3334v-65.3333h-65.3333v-65.3334h-65.3333v130.667h65.3333v65.3333h-197.333v65.3334h65.3333v65.3333h66.6667v-65.3333h130.667v-65.3334h65.3334v130.667h-65.3334v66.6667h-130.667v65.3333h-66.6667v65.3333h-130.667v65.3334h-65.3333v-65.3334h-65.3333v-65.3333h-66.6667v-65.3333h-65.3333v65.3333h-196v130.667h-65.3334v-65.3334h-132v65.3334h65.3334v65.3333h-130.667v66.6667h65.3333v65.3333h65.3334v-65.3333h66.6666v-66.6667h65.3334v132h65.3333v65.3333h-65.3333v65.3334h-65.3334v-65.3334h-132v-65.3333h-65.3333v-65.3333h-65.3333v130.667h65.3333v130.667h-65.3333zm130.667-524v-32.6666h132v65.3333h65.3334v-65.3333h-65.3334v-66.6667h-132v-65.3333h65.3334v-65.3334h66.6666v-65.3333h-197.333v130.667h-65.3333v65.3333h130.667v66.6667h-65.3333v65.3333h65.3333zm721.333-66v-98.6666h-65.3334v-65.3334h-65.3333v65.3334h65.3333v65.3333h-197.333v66.6667h66.6667v65.3333h196zm-328-32.6666v-66h65.3333v-130.667h-130.667v-65.3333h-65.3333v130.667h-65.3333v65.3334h130.667v132h65.3334zm-65.3334-98.6667v-32.6667h65.3334v65.3334h-65.3334zm-130.667-262v-98.6667h-197.333v197.333h197.333zm-132 0v-33.3333h66.6666v66.6666h-66.6666zm-130.667-131.333v-32.6667h-65.3333v65.3333h65.3333zm458.667 0v-32.6667h65.3333v65.3333h66.6667v-65.3333h-66.6667v-130.667h66.6667v-65.3333h-66.6667v65.3333h-65.3333v-65.3333h-65.3334v65.3333h-65.3333v-65.3333h-65.3333v65.3333h-132v65.3334h-65.3334v-130.667h-65.3333v65.3333h-65.3333v65.3334h130.667v65.3333h65.3334v-65.3333h262.667v-65.3334h65.3334v130.667h-65.3334v65.3333h65.3334zm590.667-130.667v-32.6667h-65.3333v65.3334h65.3333zm-656-262.667v-32.6666h-65.3333v65.3333h65.3333zm525.333 0v-32.6666h-66.6667v65.3333h66.6667zm-394.667-196.667v-33.3334h66.6667v-65.3333h-66.6667v65.3333h-65.3333v66.6667h65.3333zm788 1704.67v-32.6666h65.3333v65.3333h-65.3333zm-2033.33-65.3333v-32.6667h65.3333v-65.3333h-130.667v-132h65.3334v-65.3333h-130.667v-65.3334h65.3333v-65.3333h-130.667v-65.3333h130.667v-66.6667h-130.667v-65.3333h261.333v65.3333h-65.3333v66.6667h65.3333v196h65.3333v-65.3334h66.6667v65.3334h65.3333v65.3333h-65.3333v132h-66.6667v65.3333h66.6667v65.3334h-197.333zm197.333-262.667v-32.6666h-66.6667v65.3333h66.6667zm-197.333-196v-32.6666h-65.3334v65.3333h65.3334zm1573.33 393.333v-32.6667h66.6667v65.3333h-66.6667zm-458.667-164v-66h-65.3333v-65.3334h65.3333v65.3334h65.3334v132h-65.3334zm721.333-164v-98h197.333v65.3333h65.3333v65.3333h65.3334v65.3334h-130.667v-130.667h-132v130.667h-65.3333zm-1705.33-65.3334v-32.6666h66.6667v65.3333h-66.6667zm132-66v-33.3333h-132v-65.3333h66.6667v-65.3334h-132v-65.3333h65.3333v-65.3333h-65.3333v-65.3334h-65.3333v196h-65.3334v-196h65.3334v-66.6666h65.3333v66.6666h65.3333v-66.6666h66.6667v-65.3334h130.667v-65.3333h-65.3334v-65.3333h65.3334v-65.3334h65.3333v-65.3333h65.3333v65.3333h-65.3333v130.667h65.3333v65.3333h-65.3333v65.3334h65.3333v66.6666h-65.3333v-66.6666h-65.3333v132h65.3333v65.3333h-196v65.3333h130.667v65.3334h-65.3334v65.3333h65.3334v66.6667h-65.3334zm-65.3333-327.333v-32.6667h-66.6667v65.3334h66.6667zm196 261.333v-32.6666h65.3333v65.3333h-65.3333zm1508 0v-32.6666h65.3333v65.3333h-65.3333zm-1442.67-196v-32.6666h66.6667v65.3333h-66.6667zm-524-557.333v-66h65.3334v132h-65.3334zm130.667-98.6667v-32.6666h-65.3333v-65.3334h65.3333v65.3334h65.3333v-65.3334h66.6667v65.3334h-66.6667v65.3333h-65.3333zm197.333-130.667v-32.6667h65.3334v65.3333h-65.3334zm196-66v-33.3334h-65.3333v-130.667h65.3333v-65.3334h132v65.3334h65.3334v65.3333h-65.3334v65.3333h-65.3333v66.6667h-66.6667zm132-131.333v-32.6666h-132v65.3333h132zm458.667 0v-32.6666h-65.3333v-65.3334h-65.3334v-65.3333h-66.6666v-65.3333h66.6666v65.3333h196v65.3333h-65.3333v65.3334h65.3333v65.3333h-65.3333zm-984-130.667v-32.6667h65.3333v65.3333h-65.3333zm1246.67-197.333v-32.6667h65.3333v65.3333h-65.3333zm-853.333-98v-65.3333h66.6667v130.667h-66.6667zm984 32.6667v-32.6667h65.3334v-65.3333h65.3333v65.3333h-65.3333v65.3333h-65.3334zm-1508-65.3333v-32.6667h65.3334v65.3333h-65.3334zm917.333 2918v-65.3334h197.333v-65.3333h65.3333v-66.6667h-65.3333v66.6667h-262.667v196h65.3334zm984 32.6666v-32.6666h65.3333v65.3333h65.3333v-65.3333h66.6667v-197.333h-66.6667v132h-130.667v65.3334h-65.3334v-65.3334h-65.3333v65.3334h65.3333v65.3333h65.3334zm-852-328v-98h-197.333v196h197.333zm-132 0v-32.6666h66.6666v65.3333h-66.6666zm1442.67 0v-98h-196v196h196zm-130.667 0v-32.6666h65.3333v65.3333h-65.3333zm-1049.33 0v-32.6666h-65.3333v65.3333h65.3333zm-1836-524v-32.6666h-65.3333v65.3333h65.3333zm2885.33 0v-32.6666h-65.3334v65.3333h65.3334zm197.333-262.667v-32.6667h-66.6667v65.3333h66.6667zm0-262.667v-32.6667h-66.6667v65.3334h66.6667zm-2689.33-262v-98.6667h-196v197.333h196zm-130.667 0v-33.3333h65.3333v66.6666h-65.3333zm2753.33 0v-98.6667h-196v197.333h196zm-130.667 0v-33.3333h65.3333v66.6666h-65.3333zm-2688-196.667v-32.6666h-66.6667v65.3333h66.6667zm130.667 0v-32.6666h-65.3333v65.3333h65.3333zm458.667 0v-32.6666h-65.3333v65.3333h65.3333zm2426.67-65.3333v-32.6667h-65.3334v65.3334h65.3334zm-3016-65.3333v-32.6667h-66.6667v-66.6667h197.333v-65.3333h65.3333v65.3333h65.3333v-65.3333h-65.3333v-65.3333h-65.3333v-65.3334h65.3333v-65.3333h65.3333v-66.6667h-65.3333v66.6667h-65.3333v65.3333h-130.667v65.3334h130.667v65.3333h-197.333v-65.3333h-65.3333v-65.3334h-65.3333v130.667h-65.3333v65.3333h65.3333v66.6667h130.667v65.3333h66.6667zm-132-132v-32.6667h65.3333v65.3333h-65.3333zm262.667 132v-32.6667h-65.3333v65.3333h65.3333zm852-197.333v-32.6666h-65.3333v65.3333h65.3333zm2098.67-130.667v-32.6667h-65.3333v65.3333h65.3333zm-656-132v-32.6667h-65.3333v65.3333h65.3333zm-2294.67-65.3334v-32.6666h-65.3333v65.3333h65.3333zm2360-65.3333v-32.6667h-65.3333v65.3334h65.3333zm197.333 0v-32.6667h-130.667v65.3334h130.667zm130.667-65.3333v-32.6667h-65.3333v-65.3333h-65.3333v-66.6667h-197.333v132h66.6667v-65.3333h65.3333v65.3333h130.667v65.3333h65.3333zm-1310.67-328v-98h-197.333v196h197.333zm-132 0v-32.6667h66.6666v65.3333h-66.6666zm-654.667 0v-32.6667h-66.6667v65.3333h66.6667zm1180-262.667v-32.6667h-65.3333v65.3333h65.3333zm589.333 0v-32.6667h-65.3333v65.3333h65.3333zm-1573.33 2950.67v-32.6667h65.3333v65.3333h-65.3333zm2098.67-655.333v-33.3333h65.3333v-196h65.3333v262.667h-130.667zm-3344-524.667v-32.6667h65.3333v65.3333h-65.3333zm0-262.667v-32.6667h65.3333v65.3334h-65.3333zm393.333-982.667v-32.6667h65.3333v65.3333h-65.3333zm-394.667-460.667v-229.333h458.667v458.667h-458.667zm393.333 0v-164h-326.667v328h326.667zm-262.667 0v-98.6667h197.333v197.333h-197.333zm2886.67 0v-229.333h458.667v458.667h-458.667zm393.333 0v-164h-326.667v328h326.667zm-262.667 0v-98.6667h197.333v197.333h-197.333zm-1638.67-64.6667v-32.6667h65.3333v-130.667h197.333v130.667h65.3334v65.3333h-65.3334v-65.3333h-66.6666v65.3333h-196zm196-65.3333v-32.6667h-65.3334v65.3333h65.3334zm197.333 65.3333v-32.6667h65.3333v65.3333h-65.3333zm0-130.667v-32.6667h130.667v65.3333h-130.667z" style="stroke-width:1.33333"/>
</svg>
