<?xml version="1.0" encoding="UTF-8" standalone="no"?>
<!-- Generator: Adobe Illustrator 16.0.0, SVG Export Plug-In . SVG Version: 6.00 Build 0)  -->

<svg
   xmlns:dc="http://purl.org/dc/elements/1.1/"
   xmlns:cc="http://creativecommons.org/ns#"
   xmlns:rdf="http://www.w3.org/1999/02/22-rdf-syntax-ns#"
   xmlns:svg="http://www.w3.org/2000/svg"
   xmlns="http://www.w3.org/2000/svg"
   xmlns:sodipodi="http://sodipodi.sourceforge.net/DTD/sodipodi-0.dtd"
   xmlns:inkscape="http://www.inkscape.org/namespaces/inkscape"
   version="1.1"
   id="Capa_1"
   x="0px"
   y="0px"
   width="20"
   height="20"
   viewBox="0 0 19.999999 19.999999"
   xml:space="preserve"
   inkscape:version="0.91 r13725"
   sodipodi:docname="past_cad.svg"><metadata
     id="metadata51"><rdf:RDF><cc:Work
         rdf:about=""><dc:format>image/svg+xml</dc:format><dc:type
           rdf:resource="http://purl.org/dc/dcmitype/StillImage" /><dc:title></dc:title></cc:Work></rdf:RDF></metadata><defs
     id="defs49" /><sodipodi:namedview
     pagecolor="#000000"
     bordercolor="#666666"
     borderopacity="1"
     objecttolerance="10"
     gridtolerance="10"
     guidetolerance="10"
     inkscape:pageopacity="0"
     inkscape:pageshadow="2"
     inkscape:window-width="914"
     inkscape:window-height="891"
     id="namedview47"
     showgrid="false"
     fit-margin-top="0"
     fit-margin-left="0"
     fit-margin-right="0"
     fit-margin-bottom="0"
     inkscape:zoom="13.710941"
     inkscape:cx="13.663778"
     inkscape:cy="10.761854"
     inkscape:window-x="929"
     inkscape:window-y="15"
     inkscape:window-maximized="0"
     inkscape:current-layer="Capa_1" /><g
     id="g4190"
     transform="matrix(0.07010801,0,0,0.07010801,-8.4977858,-4.3823455)"
     style="fill:#ffffff"><path
       inkscape:connector-curvature="0"
       id="path13"
       d="m 325.244,268.289 -22.074,-60.033 12.256,0 0,9.682 5.979,0 0,-25.353 -5.979,0 0,9.693 -14.46,0 -14.302,-38.886 c 1.529,-3.449 2.404,-7.235 2.404,-11.243 0,-14.109 -10.525,-25.65 -24.123,-27.496 l 0,-33.07 -7.491,0 0,33.064 c -13.614,1.846 -24.131,13.387 -24.131,27.496 0,5.655 1.695,10.908 4.611,15.303 l -12.825,34.826 -15.029,0 0,-9.692 -5.978,0 0,25.352 5.978,0 0,-9.682 12.835,0 -22.074,60.033 1.405,16.894 -8.214,36.598 18.479,-32.379 13.278,-12.445 37.249,-95.354 37.272,95.354 13.269,12.445 18.478,32.379 -8.216,-36.598 1.403,-16.888 z m -63.608,-96.823 c -10.655,0 -19.28,-8.627 -19.28,-19.256 0,-10.645 8.63,-19.267 19.28,-19.267 10.642,0 19.269,8.628 19.269,19.267 0,10.634 -8.627,19.256 -19.269,19.256 z"
       style="fill:#ffffff" /><circle
       id="circle15"
       r="9.5039997"
       cy="152.47501"
       cx="261.63599"
       style="fill:#ffffff" /></g><g
     id="g17"
     transform="translate(-2.59507,-530.34408)" /><g
     id="g19"
     transform="translate(-2.59507,-530.34408)" /><g
     id="g21"
     transform="translate(-2.59507,-530.34408)" /><g
     id="g23"
     transform="translate(-2.59507,-530.34408)" /><g
     id="g25"
     transform="translate(-2.59507,-530.34408)" /><g
     id="g27"
     transform="translate(-2.59507,-530.34408)" /><g
     id="g29"
     transform="translate(-2.59507,-530.34408)" /><g
     id="g31"
     transform="translate(-2.59507,-530.34408)" /><g
     id="g33"
     transform="translate(-2.59507,-530.34408)" /><g
     id="g35"
     transform="translate(-2.59507,-530.34408)" /><g
     id="g37"
     transform="translate(-2.59507,-530.34408)" /><g
     id="g39"
     transform="translate(-2.59507,-530.34408)" /><g
     id="g41"
     transform="translate(-2.59507,-530.34408)" /><g
     id="g43"
     transform="translate(-2.59507,-530.34408)" /><g
     id="g45"
     transform="translate(-2.59507,-530.34408)" /></svg>