<svg width="150mm" height="193.989mm" version="1.1" viewBox="-25 0 200 244" xmlns="http://www.w3.org/2000/svg">
  <path style="fill:#ffffff" d="m85.2263-1.4222e-7 -9.14466 0.0021l-9.14466 0.0021-7.19543 1.16634-7.19543 1.16582-7.95249 2.65875-7.95249 2.65824-6.40684 3.40651-6.40684 3.40599-5.78363 4.1646-5.78363 4.16409-2.92954 3.00033-2.92954 2.99982 5.22242 5.26324 5.22294 5.2648 3.08043-2.83187 3.08095-2.83187 4.9227-3.48661 4.92321-3.48661 5.68079-2.84686 5.68027-2.84634 5.302-1.81074 5.30149-1.81074 6.34793-1.11156 6.34793-1.11156h17.3622l7.63416 1.55546 7.63468 1.55598 5.84667 2.25464 5.84667 2.25464 6.20221 3.72794 6.20169 3.72742 5.28701 4.3248 5.2865 4.32532 5.30304-5.23586 5.30303-5.23586-4.02353-3.63079-4.02352-3.63027-6.62079-4.47363-6.62027-4.47415-5.76915-2.73782-5.76916-2.7373-6.54534-2.13579-6.54533-2.13579-7.13962-1.2237zm-4.27829 30.086l-8.8992 0.433564-8.8992 0.433565-4.54391 1.2392-4.54443 1.2392-7.57421 3.59875-7.5737 3.59926-4.54442 3.6437-4.54442 3.64319-1.11259 1.0387-1.11259 1.03818 5.25808 5.29838 5.25808 5.29632h0.295071l4.03851-3.46542 4.038-3.46491 6.05906-2.94142 6.05958-2.94142 4.9227-1.156 4.92322-1.15652 7.26364-0.01035 7.26312-0.0098 5.87148 1.50171 5.87148 1.5012 4.79557 2.3611 4.79608 2.3611 4.50981 3.63388 4.5098 3.63389 5.20433-5.28495 5.20485-5.28495-3.95841-3.58066-3.9579-3.58118-5.80482-3.32124-5.80429-3.32125-5.76864-2.04122-5.76812-2.04122-5.86579-0.946195zm-11.2009 30.5041-4.81314 1.48776-4.81366 1.48725-3.78685 2.37815-3.78736 2.37866-1.72961 1.59164-1.72961 1.59215 13.0824 13.0984 13.0829 13.1h0.789617l13.2292-13.2452 13.2287-13.2452-2.63343-2.24018-2.63343-2.24017-4.54442-2.26756-4.54442-2.26705-3.40806-0.78496-3.40858-0.78497-5.78983-0.0196zm72.1067 26.3033-0.53898 3.55896-0.53847 3.55947h-2.41432v6.19392l-1.93994 0.74518-1.93941 0.74466v6.55257h-2.58641v45.2975h-9.05164l-0.0217-19.7368-0.0217-19.7368-9.35344-6.12159-9.35343-6.12159-0.3545 21.3284-0.3545 21.3289h-6.40271v-13.0359l-12.608 0.37-12.6075 0.37052-0.36432 15.2073-0.364318 15.2068h-6.23268l-0.398957-25.7411-0.398425-25.7406-3.23288-2.68872-3.23288-2.68924h-2.58589l-3.23288 2.68872-3.23288 2.68821-0.41031 21.2116-0.410311 21.2116h-4.99815v-64.7108h-16.8103v46.5915h-9.05164v-19.4133h-2.5864v-3.48609l-2.41432-2.78691-2.41484-2.7864h-1.97972l-2.41432 2.7864-2.41484 2.78691v3.48609h-2.58589v47.7495c11.7144 11.2583 25.6932 19.6512 40.8445 24.7272 24.2314 8.08919 45.3491 6.53547 69.1431 0 14.7942-4.95627 28.4701-13.0752 40.012-23.936v-56.3056h-2.58589v-7.76542h-2.5864v-6.47092h-2.58589l-0.19379-3.55947z"/>
</svg>
