<?xml version="1.0" encoding="UTF-8" standalone="no"?>
<!-- Svg Vector Icons : http://www.onlinewebfonts.com/icon -->

<svg
   xmlns:dc="http://purl.org/dc/elements/1.1/"
   xmlns:cc="http://creativecommons.org/ns#"
   xmlns:rdf="http://www.w3.org/1999/02/22-rdf-syntax-ns#"
   xmlns:svg="http://www.w3.org/2000/svg"
   xmlns="http://www.w3.org/2000/svg"
   xmlns:sodipodi="http://sodipodi.sourceforge.net/DTD/sodipodi-0.dtd"
   xmlns:inkscape="http://www.inkscape.org/namespaces/inkscape"
   version="1.1"
   x="0px"
   y="0px"
   viewBox="0 0 1000 1000"
   enable-background="new 0 0 1000 1000"
   xml:space="preserve"
   id="svg16"
   sodipodi:docname="trading.svg"
   inkscape:version="0.92.1 r15371"><defs
     id="defs20" /><sodipodi:namedview
     pagecolor="#000000"
     bordercolor="#666666"
     borderopacity="1"
     objecttolerance="10"
     gridtolerance="10"
     guidetolerance="10"
     inkscape:pageopacity="0"
     inkscape:pageshadow="2"
     inkscape:window-width="1920"
     inkscape:window-height="1013"
     id="namedview18"
     showgrid="false"
     inkscape:zoom="0.3337544"
     inkscape:cx="-81.681709"
     inkscape:cy="847.34539"
     inkscape:window-x="304"
     inkscape:window-y="1071"
     inkscape:window-maximized="1"
     inkscape:current-layer="svg16" /><metadata
     id="metadata2"> Svg Vector Icons : http://www.onlinewebfonts.com/icon <rdf:RDF><cc:Work
     rdf:about=""><dc:format>image/svg+xml</dc:format><dc:type
       rdf:resource="http://purl.org/dc/dcmitype/StillImage" /><dc:title></dc:title></cc:Work></rdf:RDF></metadata><path
     inkscape:connector-curvature="0"
     style="color:#000000;font-style:normal;font-variant:normal;font-weight:normal;font-stretch:normal;font-size:medium;line-height:normal;font-family:sans-serif;font-variant-ligatures:normal;font-variant-position:normal;font-variant-caps:normal;font-variant-numeric:normal;font-variant-alternates:normal;font-feature-settings:normal;text-indent:0;text-align:start;text-decoration:none;text-decoration-line:none;text-decoration-style:solid;text-decoration-color:#000000;letter-spacing:normal;word-spacing:normal;text-transform:none;writing-mode:lr-tb;direction:ltr;text-orientation:mixed;dominant-baseline:auto;baseline-shift:baseline;text-anchor:start;white-space:normal;shape-padding:0;clip-rule:nonzero;display:inline;overflow:visible;visibility:visible;opacity:1;isolation:auto;mix-blend-mode:normal;color-interpolation:sRGB;color-interpolation-filters:linearRGB;solid-color:#000000;solid-opacity:1;vector-effect:none;fill:#ffffff;fill-opacity:1;fill-rule:nonzero;stroke:none;stroke-width:61.15668106;stroke-linecap:butt;stroke-linejoin:miter;stroke-miterlimit:4;stroke-dasharray:none;stroke-dashoffset:0;stroke-opacity:1;color-rendering:auto;image-rendering:auto;shape-rendering:auto;text-rendering:auto;enable-background:accumulate"
     d="m 494.51433,153.53482 v 40.41477 c -44.03413,2.93991 -80.49172,15.33388 -107.66323,37.94221 -32.4401,26.99216 -48.2863,67.73953 -48.2863,111.22871 0,60.93826 26.21963,104.03825 61.43141,128.21701 30.01726,20.61185 63.62525,30.42108 94.51812,40.52527 v 219.76688 c -38.7527,-3.75005 -64.12802,-14.34333 -79.79931,-29.55707 -18.49824,-17.95815 -28.62077,-45.81616 -27.23682,-93.56255 l -61.1328,-1.77379 c -1.67387,57.74889 11.9018,106.33671 45.76896,139.21506 29.91081,29.0375 71.7088,43.08165 122.39997,47.1008 v 62.87672 h 45.8675 v -62.24662 c 52.88117,-2.74536 96.12995,-17.06512 126.87325,-46.10044 35.43246,-33.46401 49.23353,-83.42012 45.84064,-140.25127 l -0.0388,-0.66291 -0.0687,-0.66294 C 707.42729,552.24902 675.66164,513.9609 638.67152,492.4975 607.01356,474.12806 571.96223,465.58112 540.38186,460.47684 V 255.20182 c 31.3165,2.41924 54.37656,10.63191 69.10288,22.70083 17.68885,14.49687 27.87681,35.23122 27.22188,73.87177 l 61.15071,1.03918 c 0.874,-51.56553 -16.45856,-95.0457 -49.60619,-122.21182 -28.69245,-23.51487 -65.8892,-34.26214 -107.86928,-36.72984 v -40.33712 z m 0,101.75959 v 191.86415 c -23.89956,-8.17676 -45.00806,-16.00599 -59.90249,-26.23349 -22.12262,-15.19107 -34.89036,-31.71862 -34.89036,-77.80456 0,-29.89882 8.61646,-49.54366 26.2484,-64.21451 14.15865,-11.78085 36.32716,-20.84891 68.54445,-23.61159 z m 45.8675,267.29768 c 24.51611,4.73982 48.82567,11.90985 67.59784,22.80236 24.78892,14.38368 40.35964,31.81798 44.08776,66.34365 2.55975,45.13406 -7.31026,72.96908 -26.80381,91.37965 -16.57205,15.6514 -43.6845,26.68573 -84.88179,29.30325 z"
     id="path2" /></svg>