<svg width="70" height="70" viewBox="-5 0 80 70" xmlns="http://www.w3.org/2000/svg">
  <path style="fill:#ffffff" d="M0 7 m44.3889 54.4134c1.01559-0.80225 4.51324-3.47251 14.3213-10.9335 2.93324-2.23132 7.02929-5.35345 9.10234-6.93807l3.76919-2.88114 0.0486-5.99954c0.0267-3.29975 9e-3 -6.05137-0.0396-6.1147-0.16036-0.20939-1.6257-1.34296-5.99722-4.6394-2.37684-1.7923-5.6709-4.28086-7.32014-5.53013-1.64924-1.24926-5.2608-3.9786-8.02569-6.0652-2.7649-2.08659-5.41125-4.09564-5.88077-4.46455-0.469528-0.36891-0.925934-0.67074-1.01424-0.67074-0.09427 0-0.158766 3.44072-0.15623 8.33438l0.0043 8.33437 1.89186 1.26135c1.04052 0.69374 3.59843 2.42601 5.68422 3.84948 2.0858 1.42347 4.76235 3.23711 5.94789 4.03032 1.18554 0.7932 2.15789 1.4873 2.16077 1.54243 3e-3 0.0551-1.04648 0.80674-2.33192 1.67022-1.28543 0.86348-4.00607 2.72337-6.04586 4.13308-2.0398 1.40972-4.52027 3.11221-5.51216 3.78333l-1.80344 1.22021v8.43708c0 4.6404 0.04245 8.43708 0.09433 8.43708s0.547976-0.35834 1.10243-0.79633zm-16.0134-7.72904v-8.34898l-1.27882-0.87945c-2.73587-1.88147-4.37393-3.01638-6.83507-4.7356-1.4067-0.98264-3.65188-2.52793-4.98928-3.43397-1.3374-0.90604-2.46831-1.70668-2.51312-1.77919-0.04481-0.0725 3.45052-2.49686 7.76741-5.38743l7.84889-5.25559v-8.43207c0-4.63764-0.03982-8.43207-0.0885-8.43207-0.08274 0-4.30177 3.17557-16.0529 12.0826-2.6878 2.03729-6.52539 4.93879-8.52797 6.44777l-3.64106 2.74361-0.0325 6.25223-0.03251 6.25222 3.03112 2.25397c1.66711 1.23969 3.62643 2.71093 4.35403 3.26943 2.28088 1.75078 5.78614 4.41983 9.17222 6.98409 1.79476 1.35916 4.13632 3.14055 5.20347 3.95863 1.06715 0.818081 2.82983 2.1529 3.91706 2.96625 1.08723 0.81336 2.02457 1.55616 2.08298 1.65066 0.05841 0.0945 0.220576 0.17184 0.360371 0.17184 0.217726 0 0.254173-1.19724 0.254173-8.34899zm43.9208-23.7538c0-0.097-0.035-0.17639-0.0778-0.17639s-0.12684 0.0794-0.1868 0.17639c-0.06 0.097-0.025 0.17639 0.0778 0.17639 0.10274 0 0.1868-0.0794 0.1868-0.17639zm-58.5386-12.4795c0.219405-0.27976 0.213166-0.286-0.0666-0.0666-0.169775 0.13314-0.308681 0.27205-0.308681 0.30868 0 0.14517 0.144849 0.0517 0.375278-0.24209z" />
</svg>
