<svg width="1" height="1" version="1.1" viewBox="-2 0 30 25" xmlns="http://www.w3.org/2000/svg">
 <path d="m0.114345 19.6448v-2.75742h3.07465v1.17129h-1.70814v1.07369h1.70814v1.02488h-1.70814v2.24498h-1.36651zm3.80671 0v-2.75742h1.36651v5.51484h-1.36651zm2.92823 0.585648v-2.17178h-1.02488v-1.17129h3.41627v1.17129h-1.02488v4.34355h-1.36651zm2.92823-0.585649v-2.75742h1.40297l0.677226 1.43948 0.677222 1.43947 0.01299-1.43947 0.01299-1.43948h1.36506v5.51752l-0.687963-0.01355-0.687961-0.01355-0.666343-1.4259c-0.366493-0.784245-0.682818-1.42663-0.702951-1.42751-0.02012-9.56e-4 -0.0366 0.646256-0.0366 1.4381v1.43972h-1.36663zm4.88039 0v-2.75742h3.07465v1.17129h-1.70814v1.07369h1.70814v1.02488h-1.70814v1.02488h1.70814v1.2201h-3.07465zm4.33052 2.23198-0.523814-0.525439v-0.657259h1.36651v0.48804h1.07369v-1.02488h-1.39258l-0.523808-0.525439-0.523815-0.525442v-1.21683l0.499371-0.501077 0.499367-0.501072h1.75702l0.501073 0.499368 0.501074 0.49937v0.709398h-1.3126l-0.01477-0.25622-0.01474-0.256219-0.524642-0.01383-0.524643-0.01383v1.07699h1.38925l0.501073 0.499368 0.501073 0.49937v1.27239l-0.501073 0.499369-0.501073 0.499367h-1.70814zm4.48996 0-0.523809-0.525439v-0.657259h1.36651v0.48804h1.07369v-1.02488h-1.39258l-0.52381-0.525438-0.523809-0.525441v-1.21683l0.499366-0.501075 0.49937-0.501074h1.80923l0.499373 0.501074 0.499364 0.501075v0.705988h-1.36651v-0.540146l-0.524641 0.01383-0.524643 0.01383v1.02488l0.707658 0.01341 0.707656 0.01341 0.50024 0.49815 0.500239 0.498146v1.22351l-0.525436 0.523812-0.525443 0.523808h-1.70821zm-23.364-8.65104v-2.78316l0.686324 0.01355 0.68632 0.01355 0.670916 1.42638c0.369004 0.784505 0.683063 1.43852 0.69791 1.45337 0.014848 0.01485 0.334273-0.627022 0.709842-1.42638l0.68285-1.45337 0.690339-0.01355 0.690343-0.01355v5.56632h-1.36508l-0.01284-1.47077-0.01284-1.47077-0.679535 1.44765c-0.373747 0.796206-0.693913 1.4306-0.711483 1.40977-0.017582-0.02083-0.32671-0.667653-0.686975-1.43737l-0.655028-1.39949-0.01284 1.46049-0.01284 1.46049h-1.36508zm6.22102 2.72354c-0.013127-0.03433-0.018164-1.28127-0.01115-2.771l0.012704-2.70862h1.36651v5.51484l-0.672056 0.01355c-0.510671 0.0103-0.677788-0.0014-0.695932-0.0488zm2.07564-2.72152v-2.78251h1.36651v4.34355h1.75995l-0.0137 0.597849-0.0137 0.597843-1.54952 0.01284-1.54952 0.01284zm3.80671-7.37e-4v-2.78182h1.36651v5.56364h-1.36651zm2.92824 0.610049v-2.17178h-1.02488v-1.22134l1.72034 0.01284 1.72034 0.01284 0.0137 0.59785 0.01369 0.597846h-1.07669v4.28148l-0.226427 0.03103c-0.124533 0.01707-0.432002 0.03103-0.683257 0.03103h-0.456825v-2.17178zm2.09856 2.13816c0-0.03103 0.942837-5.09242 1.00531-5.39678l0.02774-0.135174 1.03098 0.01312 1.03098 0.01312 0.500329 2.65982c0.275184 1.4629 0.501197 2.70984 0.502257 2.771 0.0018 0.111054 1e-3 0.111168-0.66903 0.09761l-0.67095-0.01355-0.05473-0.366027c-0.03011-0.201316-0.06993-0.470347-0.08851-0.59785l-0.03377-0.231817h-1.05444l-0.03096 0.231817c-0.01703 0.127497-0.05549 0.402022-0.08545 0.610049l-0.05449 0.378229h-0.67764c-0.3727 0-0.677642-0.01512-0.677642-0.03362zm2.38835-2.29677c-0.0016-0.04697-0.07523-0.502682-0.163466-1.01268-0.10685-0.617627-0.170883-0.886531-0.191742-0.805265-0.01721 0.06711-0.08683 0.462417-0.154686 0.87847-0.06786 0.416052-0.135681 0.816856-0.150718 0.89067l-0.02735 0.134215h0.345506c0.297674 0 0.345083-0.01185 0.342464-0.08541zm2.29682-0.45006v-2.7832h2.71028l0.523812 0.525441 0.523809 0.525437v1.21544l-0.254554 0.257755-0.254556 0.257754 0.254556 0.257759 0.254554 0.257754v2.26631h-1.36651v-2.09857h-1.02294l-0.01313 1.03708-0.01313 1.03708-0.671056 0.01355-0.671054 0.01355zm2.39139-0.953054v-0.610048h-1.02488v1.2201h1.02488zm2.96208 3.70228c-0.01862-0.01862-0.03442-0.540801-0.03512-1.16041l-0.0012-1.12656-0.67929-1.61053-0.679288-1.61053 0.664486-0.01369c0.365473-0.0075 0.679666 0.0035 0.69823 0.0244 0.01855 0.02091 0.182697 0.450294 0.364768 0.954167 0.182075 0.503869 0.337099 0.91008 0.344483 0.90269 0.0073-0.0073 0.160238-0.419653 0.339661-0.916131 0.179416-0.49648 0.342129-0.919806 0.361576-0.940726 0.01944-0.02091 0.33349-0.03189 0.697854-0.0244l0.662481 0.01369-0.677695 1.60755-0.677687 1.60756-0.01299 1.14987-0.01313 1.14987-0.661607 0.01355c-0.363882 0.0075-0.676837-0.0016-0.695456-0.02034zm-27.1688-9.16826v-2.75742h2.75909l0.523809 0.525438 0.523812 0.525439v1.16687l-0.268549 0.271378-0.268548 0.271379 0.268548 0.265212 0.268549 0.265213v1.17629l-0.525439 0.523811-0.525441 0.52381h-2.75583zm2.39139 1.04928v-0.536844h-1.02488v1.07369h1.02488zm0-2.07417v-0.512443h-1.02488v1.02488h1.02488zm2.09857 1.02488v-2.75742h2.75909l0.523811 0.525438 0.523809 0.525439v1.16687l-0.268546 0.271378-0.268549 0.271379 0.268549 0.265212 0.268546 0.265213v2.22391h-1.36651v-2.04976h-1.07368v2.04976h-1.36651zm2.4295-0.939476 0.0136927-0.597848h-1.07669v1.2234l0.524642-0.01383 0.524642-0.01383zm2.06046 0.939476v-2.75742h1.36651v5.51484h-1.36651zm2.92823 0.610048v-2.14737h-1.02488v-1.2201h3.46508v1.2201h-1.02488v4.29475h-1.41532zm2.97704-0.610048v-2.75742h1.36651v5.51484h-1.36651zm2.57357 2.23198-0.523811-0.525439v-0.657258h1.41531v0.536844h1.02488v-1.07369h-1.39257l-0.523809-0.525439-0.523813-0.525439v-1.17136l0.525441-0.52381 0.525438-0.523809h1.70821l0.523807 0.525438 0.523811 0.525439v0.65726h-1.36651v-0.48804h-1.02488v1.02488h1.34377l0.523812 0.525439 0.523808 0.525441v1.22025l-0.501072 0.499368-0.501074 0.49937h-1.75694zm4.01495-2.23198v-2.75742h1.36651v2.24498h1.02488v-2.24498h1.36651v5.51484h-1.36651v-2.24498h-1.02488v2.24498h-1.36651z" style="fill:#fff;stroke-width:.0488039"/>
</svg>
