<svg version="1.1" viewBox="0 0 395 395" xmlns="http://www.w3.org/2000/svg">
 <path style="fill:#ffffff" d="m163.596 34.623c-2.01097 0-3.72413 1.45722-4.04687 3.44336l-20.0664 123.549h46.1953v-126.992h-22.082zm45.7266 0v126.992h46.1934l-20.0644-123.549c-0.32156-1.98614-2.0359-3.44336-4.04687-3.44336h-22.082zm-165.512 144.725c-2.26515 0-4.10156 1.83641-4.10156 4.10156v19.8516c0 2.26515 1.83641 4.10352 4.10156 4.10352h36.2559v40.3555c0 1.84901 1.49865 3.34765 3.34766 3.34765h15.7637c1.84901 0 3.34766-1.49864 3.34766-3.34765v-40.3555h189.949v40.3555c0 1.84901 1.49865 3.34765 3.34766 3.34765h15.7637c1.85019 0 3.34765-1.49864 3.34765-3.34765v-40.3555h36.2559c2.26515 0 4.10157-1.83837 4.10157-4.10352v-19.8516c0-2.26515-1.83642-4.10156-4.10157-4.10156h-307.379zm85.3574 45.7891l-21.1894 130.479c-0.1927 1.18696 0.14473 2.40018 0.92382 3.31641s1.91955 1.44336 3.12305 1.44336l73.6523 0.00195v-135.24h-56.5098zm80.1543 0v135.242l73.6523-0.00391c1.20351 0 2.34278-0.52595 3.12305-1.44336 0.77909-0.91623 1.11652-2.12749 0.92382-3.31445l-21.1894-130.48h-56.5098z" />
</svg>
