<svg enable-background="new 0 0 1024 1024" version="1.1" viewBox="0 0 1024 1024" xmlns="http://www.w3.org/2000/svg">
 <path d="m508.92 639.1c16.473 23.862 17.317 51.063 17.055 78.646-0.31831 33.395-0.0619 66.79-0.0279 100.19 0.0123 10.726-0.24852 11.019-10.666 11.018-43.702-7e-3 -87.402 0-131.11-6e-3 -9.7471 0-10.622-0.93092-10.608-10.715 0.0307-21.3 0.0102-42.599 0.0102-65.042-7.5384 0.77176-15.099 1.581-22.667 2.3136-36.924 3.5746-69.107-5.862-94.02-34.727-3.4869-4.0409-6.2708-8.7168-9.149-13.247-12.683-19.969-24.967-40.201-38.098-59.865-4.0644-6.0854-10.355-10.682-15.614-15.972-2.7693-2.7855-5.5118-5.599-8.7715-8.9156 9.111-5.9212 17.837-4.3101 26.099-3.0379 20.629 3.1764 34.575 15.953 45.622 32.901 5.4979 8.4353 11.187 17.038 18.247 24.105 22.611 22.633 50.075 29.935 81.181 22.879 20.064-4.5524 16.173-2.4398 19.17-20.768 2.002-12.242 5.3778-23.901 12.041-34.472 1.1046-1.7541 2.0199-3.6265 3.3808-6.0943-8.8044-1.7373-17.027-3.1301-25.139-5.0014-32.186-7.4217-61.864-19.969-85.353-44.095-24.892-25.571-38.364-56.196-39.301-92.132-0.78797-30.2-0.60257-60.312 6.2361-89.976 4.3888-19.042 12.324-36.103 26.254-50.252 2.1584-2.1936 3.4221-7.3893 2.4164-10.252-9.9236-28.259-8.5632-56.196 0.60646-84.292 1.5765-4.8322 3.2379-5.9966 8.0634-4.6781 17.7 4.8384 32.852 13.971 45.489 27.062 8.624 8.9329 16.517 18.576 25.082 28.292 21.864-15.796 47.732-16.35 73.257-17.84 28.219-1.6469 56.459-1.2007 84.191 4.8104 10.769 2.3354 21.012 7.0978 30.585 10.437 11.247-10.686 22.863-21.564 34.299-32.632 10.327-9.995 22.559-16.221 36.358-19.907 5.2818-1.4106 7.9617-0.15637 9.7504 4.9986 9.4919 27.349 11.095 54.686 0.43057 82.102-1.5547 3.999-2.6219 7.7618 1.0521 11.274 18.655 17.839 27.936 40.303 29.908 65.478 2.083 26.582 4.5826 53.391 3.2753 79.924-2.4276 49.236-26.87 86.207-69.336 111.07-22.768 13.33-47.627 20.641-73.592 24.491-1.4877 0.22002-2.9899 0.36968-4.4558 0.68799-0.59251 0.13068-1.1074 0.62323-2.1522 1.2431z" style="clip-rule:evenodd;fill-rule:evenodd;fill:#fff;stroke-width:.55844"/>
</svg>
