<svg width="300" height="244.19" version="1.1" viewBox="-50 0 500.00006 244.18703" xmlns="http://www.w3.org/2000/svg">
 <path d="m102.62 211.28c82.832 0 128.13-68.622 128.13-128.13 0-1.9491-0.0397-3.8894-0.12712-5.8209 8.7929-6.3565 16.435-14.289 22.463-23.319-8.0688 3.5865-16.752 6.0009-25.861 7.0896 9.2974-5.5751 16.435-14.394 19.803-24.908-8.7008 5.1581-18.336 8.907-28.596 10.931-8.2176-8.7531-19.917-14.228-32.871-14.228-24.869 0-45.035 20.167-45.035 45.026 0 3.5338 0.39508 6.9711 1.1677 10.268-37.427-1.8833-70.615-19.803-92.827-47.05-3.8674 6.655-6.0975 14.385-6.0975 22.634 0 15.624 7.9502 29.416 20.04 37.485-7.3883-0.22827-14.329-2.2564-20.395-5.6322-0.0066 0.18894-0.0066 0.37314-0.0066 0.57507 0 21.809 15.523 40.018 36.128 44.144-3.7841 1.0316-7.7654 1.5847-11.875 1.5847-2.8973 0-5.72-0.28516-8.4636-0.81211 5.7331 17.893 22.358 30.913 42.068 31.277-15.413 12.081-34.829 19.276-55.931 19.276-3.6304 0-7.2169-0.2065-10.742-0.62337 19.93 12.775 43.595 20.228 69.03 20.228" style="fill:#fff;stroke-width:.73654"/>
</svg>
