<?xml version="1.0" encoding="UTF-8" standalone="no"?>
<!-- Created with Inkscape (http://www.inkscape.org/) -->

<svg
   xmlns:dc="http://purl.org/dc/elements/1.1/"
   xmlns:cc="http://creativecommons.org/ns#"
   xmlns:rdf="http://www.w3.org/1999/02/22-rdf-syntax-ns#"
   xmlns:svg="http://www.w3.org/2000/svg"
   xmlns="http://www.w3.org/2000/svg"
   xmlns:sodipodi="http://sodipodi.sourceforge.net/DTD/sodipodi-0.dtd"
   xmlns:inkscape="http://www.inkscape.org/namespaces/inkscape"
   width="200"
   height="50"
   id="svg2"
   version="1.1"
   inkscape:version="0.48.3.1 r9886"
   sodipodi:docname="lang_language.svg">
  <defs
     id="defs4">
    <clipPath
       id="t-5-4">
      <path
         id="path5-7-0"
         d="m 30,15 h 30 v 15 z m 0,0 V 30 H 0 z m 0,0 H 0 V 0 z m 0,0 V 0 h 30 z"
         inkscape:connector-curvature="0" />
    </clipPath>
    <clipPath
       id="t-5">
      <path
         id="path5-7"
         d="m 30,15 h 30 v 15 z m 0,0 V 30 H 0 z m 0,0 H 0 V 0 z m 0,0 V 0 h 30 z"
         inkscape:connector-curvature="0" />
    </clipPath>
    <clipPath
       id="t-5-4-0">
      <path
         id="path5-7-0-5"
         d="m 30,15 h 30 v 15 z m 0,0 V 30 H 0 z m 0,0 H 0 V 0 z m 0,0 V 0 h 30 z"
         inkscape:connector-curvature="0" />
    </clipPath>
    <clipPath
       id="t-5-1">
      <path
         id="path5-7-5"
         d="m 30,15 h 30 v 15 z m 0,0 V 30 H 0 z m 0,0 H 0 V 0 z m 0,0 V 0 h 30 z"
         inkscape:connector-curvature="0" />
    </clipPath>
    <clipPath
       clipPathUnits="userSpaceOnUse"
       id="clipPath9153">
      <path
         style="fill:#6d6d6d;fill-opacity:1;stroke:none"
         d="m 37.53125,1012.3622 c -8.593603,0 -13.704265,3.0956 -16.46875,9.2813 L 0,1052.3622 c 53.333333,0 106.66667,0 160,0 l -21.0625,-30.7187 c -2.76449,-6.1857 -7.87515,-9.2813 -16.46875,-9.2813 -28.3125,0 -56.625,0 -84.9375,0 z"
         id="path9155"
         inkscape:connector-curvature="0"
         sodipodi:nodetypes="ccccccc" />
    </clipPath>
  </defs>
  <sodipodi:namedview
     id="base"
     pagecolor="#ffffff"
     bordercolor="#666666"
     borderopacity="1.0"
     inkscape:pageopacity="0.0"
     inkscape:pageshadow="2"
     inkscape:zoom="2.8"
     inkscape:cx="120.06738"
     inkscape:cy="6.0728564"
     inkscape:document-units="px"
     inkscape:current-layer="svg2"
     showgrid="false"
     inkscape:window-width="1600"
     inkscape:window-height="851"
     inkscape:window-x="0"
     inkscape:window-y="29"
     inkscape:window-maximized="1"
     showguides="true"
     inkscape:guide-bbox="true"
     fit-margin-top="0"
     fit-margin-left="0"
     fit-margin-right="0"
     fit-margin-bottom="0" />
  <metadata
     id="metadata7">
    <rdf:RDF>
      <cc:Work
         rdf:about="">
        <dc:format>image/svg+xml</dc:format>
        <dc:type
           rdf:resource="http://purl.org/dc/dcmitype/StillImage" />
        <dc:title />
      </cc:Work>
    </rdf:RDF>
  </metadata>
  <path
     style="fill:#000000;fill-opacity:1;stroke:none;display:inline"
     d="M 170,50 154.0625,12.375 C 149.47041,4.4213 145.51325,0 132.8125,0 L 67.1875,0 C 54.486754,0 50.529592,4.4213 45.9375,12.375 L 30,50 z"
     id="path3898"
     inkscape:connector-curvature="0"
     sodipodi:nodetypes="ccccccc" />
  <path
     style="fill:none;stroke:#ffffff;stroke-width:0.5;stroke-linecap:butt;stroke-linejoin:miter;stroke-miterlimit:4;stroke-opacity:1;stroke-dasharray:none;display:inline"
     d="m 100,21.214286 0,22.214283"
     id="path9347"
     inkscape:connector-curvature="0"
     sodipodi:nodetypes="cc" />
</svg>
