<svg width="1" height="1" viewBox="0 0 30 25" xmlns="http://www.w3.org/2000/svg">
 <path style="fill:#ffffff" d="m15.5-0.253906c0.518353-9e-8 1.02608 0.0422061 1.52792 0.102464l1.71175 5.301h-13.6066c2.28603-3.26564 6.06908-5.40347 10.3669-5.40347zm3.60131 0.524374c4.53947 1.34175 8.00042 5.15395 8.84505 9.88777l-4.58376 3.28789zm-15.0351 6.72646h5.47579l-4.24924 12.8713c-1.53257-2.0932-2.44708-4.66878-2.44708-7.46781 0-1.93734 0.445706-3.76365 1.22053-5.40347zm24.082 5.28593c3.64e-4 0.0396 0.0061 0.07783 0.0061 0.117533 0 4.86256-2.73206 9.07004-6.74454 11.1897l-4.44219-3.27884zm-19.7303 4.01417 11.0149 8.13082c-1.23836 0.40356-2.55797 0.626837-3.93281 0.626837-3.42463 0-6.52396-1.35706-8.79984-3.55911z"/>
</svg>
